<svg width="40" height="40" viewBox="0 0 40 40" fill="none" xmlns="http://www.w3.org/2000/svg">
<path d="M15.4411 36.3024C14.8022 36.485 14.1663 36.0053 14.1663 35.3409V34.6666C14.1663 34.3519 14.3145 34.0555 14.5663 33.8666L17.4997 31.6666V22.5L4.61518 26.2895C3.9747 26.4779 3.33301 25.9978 3.33301 25.3302V23.9053C3.33301 23.5509 3.52055 23.223 3.82599 23.0433L17.4997 15V5.83331C17.4997 5.13887 17.7427 4.54859 18.2288 4.06248C18.715 3.57637 19.3052 3.33331 19.9997 3.33331C20.6941 3.33331 21.2844 3.57637 21.7705 4.06248C22.2566 4.54859 22.4997 5.13887 22.4997 5.83331V15L36.1734 23.0433C36.4788 23.223 36.6663 23.5509 36.6663 23.9053V25.3302C36.6663 25.9978 36.0247 26.4779 35.3842 26.2895L22.4997 22.5V31.6666L25.433 33.8666C25.6848 34.0555 25.833 34.3519 25.833 34.6666L25.833 35.3409C25.833 36.0053 25.1971 36.485 24.5583 36.3024L19.9997 35L15.4411 36.3024Z" fill="#00414A"/>
</svg>
